%TF.GenerationSoftware,KiCad,Pcbnew,9.0.7-1.fc43*%
%TF.CreationDate,2026-03-16T09:36:35+00:00*%
%TF.ProjectId,osprey68,6f737072-6579-4363-982e-6b696361645f,rev?*%
%TF.SameCoordinates,Original*%
%TF.FileFunction,Soldermask,Top*%
%TF.FilePolarity,Negative*%
%FSLAX46Y46*%
G04 Gerber Fmt 4.6, Leading zero omitted, Abs format (unit mm)*
G04 Created by KiCad (PCBNEW 9.0.7-1.fc43) date 2026-03-16 09:36:35*
%MOMM*%
%LPD*%
G01*
G04 APERTURE LIST*
G04 Aperture macros list*
%AMRoundRect*
0 Rectangle with rounded corners*
0 $1 Rounding radius*
0 $2 $3 $4 $5 $6 $7 $8 $9 X,Y pos of 4 corners*
0 Add a 4 corners polygon primitive as box body*
4,1,4,$2,$3,$4,$5,$6,$7,$8,$9,$2,$3,0*
0 Add four circle primitives for the rounded corners*
1,1,$1+$1,$2,$3*
1,1,$1+$1,$4,$5*
1,1,$1+$1,$6,$7*
1,1,$1+$1,$8,$9*
0 Add four rect primitives between the rounded corners*
20,1,$1+$1,$2,$3,$4,$5,0*
20,1,$1+$1,$4,$5,$6,$7,0*
20,1,$1+$1,$6,$7,$8,$9,0*
20,1,$1+$1,$8,$9,$2,$3,0*%
G04 Aperture macros list end*
%ADD10R,1.700000X1.700000*%
%ADD11C,1.700000*%
%ADD12RoundRect,0.375000X0.375000X-0.625000X0.375000X0.625000X-0.375000X0.625000X-0.375000X-0.625000X0*%
%ADD13RoundRect,0.500000X1.400000X-0.500000X1.400000X0.500000X-1.400000X0.500000X-1.400000X-0.500000X0*%
%ADD14RoundRect,0.225000X0.225000X0.250000X-0.225000X0.250000X-0.225000X-0.250000X0.225000X-0.250000X0*%
%ADD15RoundRect,0.150000X-0.587500X-0.150000X0.587500X-0.150000X0.587500X0.150000X-0.587500X0.150000X0*%
%ADD16RoundRect,0.200000X-0.275000X0.200000X-0.275000X-0.200000X0.275000X-0.200000X0.275000X0.200000X0*%
%ADD17RoundRect,0.225000X-0.225000X-0.250000X0.225000X-0.250000X0.225000X0.250000X-0.225000X0.250000X0*%
%ADD18RoundRect,0.250001X0.949999X-1.499999X0.949999X1.499999X-0.949999X1.499999X-0.949999X-1.499999X0*%
%ADD19RoundRect,0.225000X0.250000X-0.225000X0.250000X0.225000X-0.250000X0.225000X-0.250000X-0.225000X0*%
%ADD20RoundRect,0.200000X0.275000X-0.200000X0.275000X0.200000X-0.275000X0.200000X-0.275000X-0.200000X0*%
%ADD21RoundRect,0.250000X-0.550000X-0.550000X0.550000X-0.550000X0.550000X0.550000X-0.550000X0.550000X0*%
%ADD22C,1.600000*%
%ADD23RoundRect,0.250000X0.550000X0.550000X-0.550000X0.550000X-0.550000X-0.550000X0.550000X-0.550000X0*%
%ADD24R,2.000000X1.440000*%
%ADD25O,2.000000X1.440000*%
%ADD26RoundRect,0.250000X-0.550000X0.550000X-0.550000X-0.550000X0.550000X-0.550000X0.550000X0.550000X0*%
%ADD27RoundRect,0.250000X0.550000X-0.550000X0.550000X0.550000X-0.550000X0.550000X-0.550000X-0.550000X0*%
%ADD28RoundRect,0.150000X-0.875000X-0.150000X0.875000X-0.150000X0.875000X0.150000X-0.875000X0.150000X0*%
%ADD29R,1.600000X1.500000*%
%ADD30C,3.000000*%
%ADD31RoundRect,0.150000X-0.150000X0.875000X-0.150000X-0.875000X0.150000X-0.875000X0.150000X0.875000X0*%
%ADD32R,1.600000X1.600000*%
G04 APERTURE END LIST*
D10*
%TO.C,J4*%
X191036237Y-52612000D03*
D11*
X191036237Y-50072000D03*
X191036237Y-47532000D03*
X191036237Y-44992000D03*
%TD*%
D12*
%TO.C,U12*%
X146936237Y-50012000D03*
X149236237Y-50012000D03*
D13*
X149236237Y-43712000D03*
D12*
X151536237Y-50012000D03*
%TD*%
D10*
%TO.C,J2*%
X110856237Y-37712000D03*
D11*
X113396237Y-37712000D03*
X115936237Y-37712000D03*
X118476237Y-37712000D03*
X121016237Y-37712000D03*
X123556237Y-37712000D03*
X126096237Y-37712000D03*
X128636237Y-37712000D03*
%TD*%
D14*
%TO.C,C16*%
X167111237Y-69412000D03*
X165561237Y-69412000D03*
%TD*%
D15*
%TO.C,Q5*%
X166936237Y-39012000D03*
X166936237Y-40912000D03*
X168811237Y-39962000D03*
%TD*%
D16*
%TO.C,R2*%
X87036237Y-119787000D03*
X87036237Y-121437000D03*
%TD*%
D15*
%TO.C,Q11*%
X179552487Y-42963000D03*
X179552487Y-44863000D03*
X181427487Y-43913000D03*
%TD*%
%TO.C,Q13*%
X149536237Y-39712000D03*
X149536237Y-41612000D03*
X151411237Y-40662000D03*
%TD*%
D14*
%TO.C,C15*%
X94686237Y-91712000D03*
X93136237Y-91712000D03*
%TD*%
D17*
%TO.C,C5*%
X96986237Y-109312000D03*
X98536237Y-109312000D03*
%TD*%
D10*
%TO.C,SW2*%
X156196237Y-82312000D03*
D11*
X158736237Y-82312000D03*
X161276237Y-82312000D03*
%TD*%
D10*
%TO.C,J3*%
X182996237Y-104187000D03*
D11*
X182996237Y-101647000D03*
X185536237Y-104187000D03*
X185536237Y-101647000D03*
X188076237Y-104187000D03*
X188076237Y-101647000D03*
%TD*%
D17*
%TO.C,C2*%
X190386237Y-73912000D03*
X191936237Y-73912000D03*
%TD*%
%TO.C,C14*%
X169986237Y-103112000D03*
X171536237Y-103112000D03*
%TD*%
D15*
%TO.C,Q6*%
X171336237Y-38812000D03*
X171336237Y-40712000D03*
X173211237Y-39762000D03*
%TD*%
D18*
%TO.C,Y2*%
X190936237Y-69912000D03*
X190936237Y-64712000D03*
%TD*%
D15*
%TO.C,Q3*%
X142137487Y-41062000D03*
X142137487Y-42962000D03*
X144012487Y-42012000D03*
%TD*%
D19*
%TO.C,C3*%
X50136237Y-106962000D03*
X50136237Y-105412000D03*
%TD*%
D10*
%TO.C,J7*%
X51336237Y-45062000D03*
D11*
X51336237Y-47602000D03*
X51336237Y-50142000D03*
X51336237Y-52682000D03*
X51336237Y-55222000D03*
%TD*%
D20*
%TO.C,R3*%
X48536237Y-47162000D03*
X48536237Y-45512000D03*
%TD*%
D15*
%TO.C,Q14*%
X153736237Y-39712000D03*
X153736237Y-41612000D03*
X155611237Y-40662000D03*
%TD*%
D21*
%TO.C,U8*%
X131967237Y-80693000D03*
D22*
X131967237Y-83233000D03*
X131967237Y-85773000D03*
X131967237Y-88313000D03*
X131967237Y-90853000D03*
X131967237Y-93393000D03*
X131967237Y-95933000D03*
X131967237Y-98473000D03*
X131967237Y-101013000D03*
X131967237Y-103553000D03*
X131967237Y-106093000D03*
X131967237Y-108633000D03*
X131967237Y-111173000D03*
X131967237Y-113713000D03*
X131967237Y-116253000D03*
X131967237Y-118793000D03*
X147207237Y-118793000D03*
X147207237Y-116253000D03*
X147207237Y-113713000D03*
X147207237Y-111173000D03*
X147207237Y-108633000D03*
X147207237Y-106093000D03*
X147207237Y-103553000D03*
X147207237Y-101013000D03*
X147207237Y-98473000D03*
X147207237Y-95933000D03*
X147207237Y-93393000D03*
X147207237Y-90853000D03*
X147207237Y-88313000D03*
X147207237Y-85773000D03*
X147207237Y-83233000D03*
X147207237Y-80693000D03*
%TD*%
D10*
%TO.C,J6*%
X50336237Y-72862000D03*
D11*
X50336237Y-70322000D03*
X50336237Y-67782000D03*
X50336237Y-65242000D03*
X50336237Y-62702000D03*
X50336237Y-60162000D03*
%TD*%
D20*
%TO.C,R4*%
X48136237Y-50737000D03*
X48136237Y-49087000D03*
%TD*%
D23*
%TO.C,U10*%
X186356237Y-95837000D03*
D22*
X186356237Y-93297000D03*
X186356237Y-90757000D03*
X186356237Y-88217000D03*
X186356237Y-85677000D03*
X186356237Y-83137000D03*
X186356237Y-80597000D03*
X186356237Y-78057000D03*
X186356237Y-75517000D03*
X186356237Y-72977000D03*
X186356237Y-70437000D03*
X186356237Y-67897000D03*
X186356237Y-65357000D03*
X186356237Y-62817000D03*
X186356237Y-60277000D03*
X186356237Y-57737000D03*
X186356237Y-55197000D03*
X186356237Y-52657000D03*
X186356237Y-50117000D03*
X186356237Y-47577000D03*
X171116237Y-47577000D03*
X171116237Y-50117000D03*
X171116237Y-52657000D03*
X171116237Y-55197000D03*
X171116237Y-57737000D03*
X171116237Y-60277000D03*
X171116237Y-62817000D03*
X171116237Y-65357000D03*
X171116237Y-67897000D03*
X171116237Y-70437000D03*
X171116237Y-72977000D03*
X171116237Y-75517000D03*
X171116237Y-78057000D03*
X171116237Y-80597000D03*
X171116237Y-83137000D03*
X171116237Y-85677000D03*
X171116237Y-88217000D03*
X171116237Y-90757000D03*
X171116237Y-93297000D03*
X171116237Y-95837000D03*
%TD*%
D14*
%TO.C,C1*%
X192736237Y-60712000D03*
X191186237Y-60712000D03*
%TD*%
D24*
%TO.C,U3*%
X107637237Y-85373000D03*
D25*
X107637237Y-87913000D03*
X107637237Y-90453000D03*
X107637237Y-92993000D03*
X107637237Y-95533000D03*
X107637237Y-98073000D03*
X107637237Y-100613000D03*
X107637237Y-103153000D03*
X107637237Y-105693000D03*
X107637237Y-108233000D03*
X107637237Y-110773000D03*
X107637237Y-113313000D03*
X107637237Y-115853000D03*
X107637237Y-118393000D03*
X122877237Y-118393000D03*
X122877237Y-115853000D03*
X122877237Y-113313000D03*
X122877237Y-110773000D03*
X122877237Y-108233000D03*
X122877237Y-105693000D03*
X122877237Y-103153000D03*
X122877237Y-100613000D03*
X122877237Y-98073000D03*
X122877237Y-95533000D03*
X122877237Y-92993000D03*
X122877237Y-90453000D03*
X122877237Y-87913000D03*
X122877237Y-85373000D03*
%TD*%
D10*
%TO.C,J8*%
X148676237Y-36312000D03*
D11*
X146136237Y-36312000D03*
X143596237Y-36312000D03*
X141056237Y-36312000D03*
X138516237Y-36312000D03*
X135976237Y-36312000D03*
%TD*%
D14*
%TO.C,C13*%
X54311237Y-38162000D03*
X52761237Y-38162000D03*
%TD*%
D15*
%TO.C,Q16*%
X157998737Y-39712000D03*
X157998737Y-41612000D03*
X159873737Y-40662000D03*
%TD*%
%TO.C,Q2*%
X133722487Y-40962000D03*
X133722487Y-42862000D03*
X135597487Y-41912000D03*
%TD*%
D23*
%TO.C,U5*%
X63238237Y-103934000D03*
D22*
X63238237Y-101394000D03*
X63238237Y-98854000D03*
X63238237Y-96314000D03*
X63238237Y-93774000D03*
X63238237Y-91234000D03*
X63238237Y-88694000D03*
X63238237Y-86154000D03*
X63238237Y-83614000D03*
X63238237Y-81074000D03*
X63238237Y-78534000D03*
X63238237Y-75994000D03*
X55618237Y-75994000D03*
X55618237Y-78534000D03*
X55618237Y-81074000D03*
X55618237Y-83614000D03*
X55618237Y-86154000D03*
X55618237Y-88694000D03*
X55618237Y-91234000D03*
X55618237Y-93774000D03*
X55618237Y-96314000D03*
X55618237Y-98854000D03*
X55618237Y-101394000D03*
X55618237Y-103934000D03*
%TD*%
D17*
%TO.C,C6*%
X164536237Y-123612000D03*
X166086237Y-123612000D03*
%TD*%
D10*
%TO.C,SW1*%
X49236237Y-111672000D03*
D11*
X49236237Y-114212000D03*
%TD*%
D17*
%TO.C,C7*%
X61736237Y-73512000D03*
X63286237Y-73512000D03*
%TD*%
D26*
%TO.C,U15*%
X105861237Y-37692000D03*
D22*
X103321237Y-37692000D03*
X100781237Y-37692000D03*
X98241237Y-37692000D03*
X95701237Y-37692000D03*
X93161237Y-37692000D03*
X90621237Y-37692000D03*
X88081237Y-37692000D03*
X85541237Y-37692000D03*
X83001237Y-37692000D03*
X80461237Y-37692000D03*
X77921237Y-37692000D03*
X75381237Y-37692000D03*
X72841237Y-37692000D03*
X70301237Y-37692000D03*
X67761237Y-37692000D03*
X65221237Y-37692000D03*
X62681237Y-37692000D03*
X60141237Y-37692000D03*
X57601237Y-37692000D03*
X57601237Y-52932000D03*
X60141237Y-52932000D03*
X62681237Y-52932000D03*
X65221237Y-52932000D03*
X67761237Y-52932000D03*
X70301237Y-52932000D03*
X72841237Y-52932000D03*
X75381237Y-52932000D03*
X77921237Y-52932000D03*
X80461237Y-52932000D03*
X83001237Y-52932000D03*
X85541237Y-52932000D03*
X88081237Y-52932000D03*
X90621237Y-52932000D03*
X93161237Y-52932000D03*
X95701237Y-52932000D03*
X98241237Y-52932000D03*
X100781237Y-52932000D03*
X103321237Y-52932000D03*
X105861237Y-52932000D03*
%TD*%
D15*
%TO.C,Q1*%
X129784987Y-40912000D03*
X129784987Y-42812000D03*
X131659987Y-41862000D03*
%TD*%
D17*
%TO.C,C4*%
X109786237Y-72112000D03*
X111336237Y-72112000D03*
%TD*%
D15*
%TO.C,Q12*%
X175344987Y-42913000D03*
X175344987Y-44813000D03*
X177219987Y-43863000D03*
%TD*%
D14*
%TO.C,C11*%
X59911237Y-57912000D03*
X58361237Y-57912000D03*
%TD*%
D15*
%TO.C,Q7*%
X179461237Y-38762000D03*
X179461237Y-40662000D03*
X181336237Y-39712000D03*
%TD*%
D27*
%TO.C,U11*%
X110566237Y-69752000D03*
D22*
X113106237Y-69752000D03*
X115646237Y-69752000D03*
X118186237Y-69752000D03*
X120726237Y-69752000D03*
X123266237Y-69752000D03*
X125806237Y-69752000D03*
X128346237Y-69752000D03*
X130886237Y-69752000D03*
X133426237Y-69752000D03*
X135966237Y-69752000D03*
X138506237Y-69752000D03*
X141046237Y-69752000D03*
X143586237Y-69752000D03*
X146126237Y-69752000D03*
X148666237Y-69752000D03*
X151206237Y-69752000D03*
X153746237Y-69752000D03*
X156286237Y-69752000D03*
X158826237Y-69752000D03*
X158826237Y-54512000D03*
X156286237Y-54512000D03*
X153746237Y-54512000D03*
X151206237Y-54512000D03*
X148666237Y-54512000D03*
X146126237Y-54512000D03*
X143586237Y-54512000D03*
X141046237Y-54512000D03*
X138506237Y-54512000D03*
X135966237Y-54512000D03*
X133426237Y-54512000D03*
X130886237Y-54512000D03*
X128346237Y-54512000D03*
X125806237Y-54512000D03*
X123266237Y-54512000D03*
X120726237Y-54512000D03*
X118186237Y-54512000D03*
X115646237Y-54512000D03*
X113106237Y-54512000D03*
X110566237Y-54512000D03*
%TD*%
D28*
%TO.C,U6*%
X88587237Y-95938000D03*
X88587237Y-97208000D03*
X88587237Y-98478000D03*
X88587237Y-99748000D03*
X88587237Y-101018000D03*
X88587237Y-102288000D03*
X88587237Y-103558000D03*
X88587237Y-104828000D03*
X88587237Y-106098000D03*
X88587237Y-107368000D03*
X97887237Y-107368000D03*
X97887237Y-106098000D03*
X97887237Y-104828000D03*
X97887237Y-103558000D03*
X97887237Y-102288000D03*
X97887237Y-101018000D03*
X97887237Y-99748000D03*
X97887237Y-98478000D03*
X97887237Y-97208000D03*
X97887237Y-95938000D03*
%TD*%
D15*
%TO.C,Q4*%
X137784987Y-41112000D03*
X137784987Y-43012000D03*
X139659987Y-42062000D03*
%TD*%
%TO.C,Q9*%
X165344987Y-42913000D03*
X165344987Y-44813000D03*
X167219987Y-43863000D03*
%TD*%
D17*
%TO.C,C8*%
X191261237Y-56012000D03*
X192811237Y-56012000D03*
%TD*%
D20*
%TO.C,R1*%
X66336237Y-115937000D03*
X66336237Y-114287000D03*
%TD*%
D23*
%TO.C,U1*%
X84477237Y-123633000D03*
D22*
X84477237Y-121093000D03*
X84477237Y-118553000D03*
X84477237Y-116013000D03*
X84477237Y-113473000D03*
X84477237Y-110933000D03*
X84477237Y-108393000D03*
X84477237Y-105853000D03*
X84477237Y-103313000D03*
X84477237Y-100773000D03*
X84477237Y-98233000D03*
X84477237Y-95693000D03*
X84477237Y-93153000D03*
X84477237Y-90613000D03*
X84477237Y-88073000D03*
X84477237Y-85533000D03*
X84477237Y-82993000D03*
X84477237Y-80453000D03*
X84477237Y-77913000D03*
X84477237Y-75373000D03*
X69237237Y-75373000D03*
X69237237Y-77913000D03*
X69237237Y-80453000D03*
X69237237Y-82993000D03*
X69237237Y-85533000D03*
X69237237Y-88073000D03*
X69237237Y-90613000D03*
X69237237Y-93153000D03*
X69237237Y-95693000D03*
X69237237Y-98233000D03*
X69237237Y-100773000D03*
X69237237Y-103313000D03*
X69237237Y-105853000D03*
X69237237Y-108393000D03*
X69237237Y-110933000D03*
X69237237Y-113473000D03*
X69237237Y-116013000D03*
X69237237Y-118553000D03*
X69237237Y-121093000D03*
X69237237Y-123633000D03*
%TD*%
D29*
%TO.C,J1*%
X173836237Y-112352000D03*
D22*
X176336237Y-112352000D03*
X178336237Y-112352000D03*
X180836237Y-112352000D03*
D30*
X170766237Y-115062000D03*
X183906237Y-115062000D03*
%TD*%
D21*
%TO.C,U9*%
X151536237Y-86412000D03*
D22*
X151536237Y-88952000D03*
X151536237Y-91492000D03*
X151536237Y-94032000D03*
X151536237Y-96572000D03*
X151536237Y-99112000D03*
X151536237Y-101652000D03*
X151536237Y-104192000D03*
X151536237Y-106732000D03*
X151536237Y-109272000D03*
X151536237Y-111812000D03*
X151536237Y-114352000D03*
X151536237Y-116892000D03*
X151536237Y-119432000D03*
X166776237Y-119432000D03*
X166776237Y-116892000D03*
X166776237Y-114352000D03*
X166776237Y-111812000D03*
X166776237Y-109272000D03*
X166776237Y-106732000D03*
X166776237Y-104192000D03*
X166776237Y-101652000D03*
X166776237Y-99112000D03*
X166776237Y-96572000D03*
X166776237Y-94032000D03*
X166776237Y-91492000D03*
X166776237Y-88952000D03*
X166776237Y-86412000D03*
%TD*%
D28*
%TO.C,U7*%
X88437237Y-77493000D03*
X88437237Y-78763000D03*
X88437237Y-80033000D03*
X88437237Y-81303000D03*
X88437237Y-82573000D03*
X88437237Y-83843000D03*
X88437237Y-85113000D03*
X88437237Y-86383000D03*
X88437237Y-87653000D03*
X88437237Y-88923000D03*
X97737237Y-88923000D03*
X97737237Y-87653000D03*
X97737237Y-86383000D03*
X97737237Y-85113000D03*
X97737237Y-83843000D03*
X97737237Y-82573000D03*
X97737237Y-81303000D03*
X97737237Y-80033000D03*
X97737237Y-78763000D03*
X97737237Y-77493000D03*
%TD*%
D14*
%TO.C,C9*%
X156161237Y-49462000D03*
X154611237Y-49462000D03*
%TD*%
D31*
%TO.C,U4*%
X100051237Y-62862000D03*
X98781237Y-62862000D03*
X97511237Y-62862000D03*
X96241237Y-62862000D03*
X94971237Y-62862000D03*
X93701237Y-62862000D03*
X92431237Y-62862000D03*
X91161237Y-62862000D03*
X89891237Y-62862000D03*
X88621237Y-62862000D03*
X88621237Y-72162000D03*
X89891237Y-72162000D03*
X91161237Y-72162000D03*
X92431237Y-72162000D03*
X93701237Y-72162000D03*
X94971237Y-72162000D03*
X96241237Y-72162000D03*
X97511237Y-72162000D03*
X98781237Y-72162000D03*
X100051237Y-72162000D03*
%TD*%
D19*
%TO.C,C10*%
X136426237Y-123462000D03*
X136426237Y-121912000D03*
%TD*%
D15*
%TO.C,Q10*%
X170744987Y-42913000D03*
X170744987Y-44813000D03*
X172619987Y-43863000D03*
%TD*%
%TO.C,Q8*%
X175261237Y-38762000D03*
X175261237Y-40662000D03*
X177136237Y-39712000D03*
%TD*%
D19*
%TO.C,C12*%
X160936237Y-49112000D03*
X160936237Y-47562000D03*
%TD*%
D15*
%TO.C,Q15*%
X162536237Y-39712000D03*
X162536237Y-41612000D03*
X164411237Y-40662000D03*
%TD*%
D23*
%TO.C,U2*%
X63238237Y-123454000D03*
D22*
X63238237Y-120914000D03*
X63238237Y-118374000D03*
X63238237Y-115834000D03*
X63238237Y-113294000D03*
X63238237Y-110754000D03*
X63238237Y-108214000D03*
X55618237Y-108214000D03*
X55618237Y-110754000D03*
X55618237Y-113294000D03*
X55618237Y-115834000D03*
X55618237Y-118374000D03*
X55618237Y-120914000D03*
X55618237Y-123454000D03*
%TD*%
D32*
%TO.C,Y1*%
X98638237Y-120874000D03*
D22*
X98638237Y-113254000D03*
X91018237Y-113254000D03*
X91018237Y-120874000D03*
%TD*%
M02*
