M48
; DRILL file {KiCad 9.0.7-1.fc43} date 2026-03-16T09:36:35+0000
; FORMAT={-:-/ absolute / inch / decimal}
; #@! TF.CreationDate,2026-03-16T09:36:35+00:00
; #@! TF.GenerationSoftware,Kicad,Pcbnew,9.0.7-1.fc43
; #@! TF.FileFunction,Plated,1,2,PTH
FMAT,2
INCH
; #@! TA.AperFunction,Plated,PTH,ViaDrill
T1C0.0118
; #@! TA.AperFunction,Plated,PTH,ComponentDrill
T2C0.0315
; #@! TA.AperFunction,Plated,PTH,ComponentDrill
T3C0.0374
; #@! TA.AperFunction,Plated,PTH,ComponentDrill
T4C0.0394
; #@! TA.AperFunction,Plated,PTH,ComponentDrill
T5C0.0906
%
G90
G05
T1
X1.9739Y-4.1501
X1.9739Y-4.6894
X2.0772Y-1.5024
X2.1392Y-1.5871
X2.1707Y-1.4139
X2.1756Y-1.5969
X2.2573Y-3.028
X2.2888Y-1.9414
X2.2977Y-2.28
X2.3203Y-1.6107
X2.3518Y-3.7761
X2.3597Y-4.5635
X2.3678Y-2.4532
X2.4267Y-4.2856
X2.4678Y-1.5686
X2.4916Y-2.8942
X2.5054Y-2.7013
X2.5347Y-2.2485
X2.5565Y-4.0359
X2.6432Y-1.417
X2.6589Y-4.6894
X2.6943Y-2.3194
X2.777Y-3.0831
X2.8029Y-2.8461
X2.8364Y-2.8469
X2.8663Y-2.8646
X2.9246Y-2.8601
X2.9583Y-2.8487
X2.994Y-2.8409
X3.0115Y-2.8694
X3.0429Y-2.8804
X3.1747Y-3.8627
X3.1983Y-2.1816
X3.2495Y-4.6894
X3.2573Y-3.354
X3.3282Y-2.2091
X3.3597Y-2.3036
X3.3735Y-3.6439
X3.4067Y-3.6483
X3.4068Y-3.1952
X3.4069Y-3.2693
X3.434Y-1.6645
X3.462Y-3.3509
X3.4627Y-1.6475
X3.4818Y-3.5009
X3.4877Y-4.2271
X3.489Y-2.4749
X3.5232Y-2.2289
X3.6668Y-3.6107
X3.6825Y-4.1698
X3.8479Y-3.1009
X3.8538Y-3.8271
X3.8794Y-2.1817
X3.8794Y-4.3036
X3.889Y-2.841
X3.9424Y-3.6501
X3.9655Y-2.1758
X4.0172Y-3.2273
X4.0678Y-1.8591
X4.0762Y-3.1977
X4.1077Y-3.5127
X4.1248Y-3.6908
X4.1252Y-3.6361
X4.1432Y-3.3194
X4.1747Y-1.8568
X4.1865Y-3.1273
X4.3833Y-1.8703
X4.3833Y-2.8391
X4.4728Y-2.4118
X4.5416Y-2.2354
X4.6393Y-3.5297
X4.6629Y-3.3973
X4.7023Y-3.3407
X4.7023Y-4.0336
X4.7298Y-3.1856
X4.7337Y-3.5238
X4.7455Y-2.9257
X4.7495Y-3.821
X4.7574Y-3.469
X4.7661Y-2.3558
X4.8006Y-3.0359
X4.8636Y-4.8312
X4.9424Y-1.6186
X4.9502Y-1.587
X5.0054Y-2.8904
X5.0468Y-1.7076
X5.0609Y-1.6795
X5.2647Y-1.6127
X5.2647Y-1.6875
X5.3648Y-1.6834
X5.3711Y-4.7997
X5.4246Y-1.6934
X5.4984Y-1.656
X5.7849Y-1.6501
X5.7849Y-1.969
X5.84Y-3.132
X5.8754Y-1.7209
X5.8754Y-1.969
X5.8794Y-3.0713
X5.903Y-1.7839
X5.966Y-1.969
X5.9975Y-2.9335
X6.0054Y-4.152
X6.0177Y-1.8101
X6.0526Y-1.5635
X6.0526Y-1.6383
X6.0526Y-1.8233
X6.0871Y-1.9473
X6.1392Y-2.2564
X6.1786Y-3.406
X6.2204Y-1.6383
X6.253Y-2.2328
X6.3361Y-1.8725
X6.4463Y-2.539
X6.4778Y-3.1304
X6.4907Y-2.9128
X6.5182Y-2.7328
X6.525Y-2.9452
X6.5341Y-2.5068
X6.5388Y-4.8666
X6.5487Y-2.9099
X6.5683Y-2.5059
X6.5723Y-2.9572
X6.586Y-2.8785
X6.5952Y-2.5224
X6.6048Y-2.833
X6.6076Y-2.5514
X6.6195Y-2.9414
X6.6196Y-2.6186
X6.6353Y-2.5664
X6.651Y-2.6422
X6.7222Y-1.7643
X6.7455Y-1.528
X6.7455Y-1.6028
X6.7534Y-4.0595
X6.8164Y-1.7603
X6.8873Y-3.1304
X6.9Y-1.6009
X6.9033Y-1.7643
X6.9424Y-1.4454
X6.9542Y-3.6855
X6.9772Y-1.7269
X7.0487Y-2.2957
X7.1392Y-1.5635
X7.1392Y-2.9099
X7.1428Y-1.7131
X7.2022Y-1.658
X7.218Y-1.7446
X7.591Y-2.2052
T2
X2.1897Y-2.9919
X2.1897Y-3.0919
X2.1897Y-3.1919
X2.1897Y-3.2919
X2.1897Y-3.3919
X2.1897Y-3.4919
X2.1897Y-3.5919
X2.1897Y-3.6919
X2.1897Y-3.7919
X2.1897Y-3.8919
X2.1897Y-3.9919
X2.1897Y-4.0919
X2.1897Y-4.2604
X2.1897Y-4.3604
X2.1897Y-4.4604
X2.1897Y-4.5604
X2.1897Y-4.6604
X2.1897Y-4.7604
X2.1897Y-4.8604
X2.2678Y-1.4839
X2.2678Y-2.0839
X2.3678Y-1.4839
X2.3678Y-2.0839
X2.4678Y-1.4839
X2.4678Y-2.0839
X2.4897Y-2.9919
X2.4897Y-3.0919
X2.4897Y-3.1919
X2.4897Y-3.2919
X2.4897Y-3.3919
X2.4897Y-3.4919
X2.4897Y-3.5919
X2.4897Y-3.6919
X2.4897Y-3.7919
X2.4897Y-3.8919
X2.4897Y-3.9919
X2.4897Y-4.0919
X2.4897Y-4.2604
X2.4897Y-4.3604
X2.4897Y-4.4604
X2.4897Y-4.5604
X2.4897Y-4.6604
X2.4897Y-4.7604
X2.4897Y-4.8604
X2.5678Y-1.4839
X2.5678Y-2.0839
X2.6678Y-1.4839
X2.6678Y-2.0839
X2.7259Y-2.9674
X2.7259Y-3.0674
X2.7259Y-3.1674
X2.7259Y-3.2674
X2.7259Y-3.3674
X2.7259Y-3.4674
X2.7259Y-3.5674
X2.7259Y-3.6674
X2.7259Y-3.7674
X2.7259Y-3.8674
X2.7259Y-3.9674
X2.7259Y-4.0674
X2.7259Y-4.1674
X2.7259Y-4.2674
X2.7259Y-4.3674
X2.7259Y-4.4674
X2.7259Y-4.5674
X2.7259Y-4.6674
X2.7259Y-4.7674
X2.7259Y-4.8674
X2.7678Y-1.4839
X2.7678Y-2.0839
X2.8678Y-1.4839
X2.8678Y-2.0839
X2.9678Y-1.4839
X2.9678Y-2.0839
X3.0678Y-1.4839
X3.0678Y-2.0839
X3.1678Y-1.4839
X3.1678Y-2.0839
X3.2678Y-1.4839
X3.2678Y-2.0839
X3.3259Y-2.9674
X3.3259Y-3.0674
X3.3259Y-3.1674
X3.3259Y-3.2674
X3.3259Y-3.3674
X3.3259Y-3.4674
X3.3259Y-3.5674
X3.3259Y-3.6674
X3.3259Y-3.7674
X3.3259Y-3.8674
X3.3259Y-3.9674
X3.3259Y-4.0674
X3.3259Y-4.1674
X3.3259Y-4.2674
X3.3259Y-4.3674
X3.3259Y-4.4674
X3.3259Y-4.5674
X3.3259Y-4.6674
X3.3259Y-4.7674
X3.3259Y-4.8674
X3.3678Y-1.4839
X3.3678Y-2.0839
X3.4678Y-1.4839
X3.4678Y-2.0839
X3.5678Y-1.4839
X3.5678Y-2.0839
X3.5834Y-4.4588
X3.5834Y-4.7588
X3.6678Y-1.4839
X3.6678Y-2.0839
X3.7678Y-1.4839
X3.7678Y-2.0839
X3.8678Y-1.4839
X3.8678Y-2.0839
X3.8834Y-4.4588
X3.8834Y-4.7588
X3.9678Y-1.4839
X3.9678Y-2.0839
X4.0678Y-1.4839
X4.0678Y-2.0839
X4.1678Y-1.4839
X4.1678Y-2.0839
X4.353Y-2.1461
X4.353Y-2.7461
X4.453Y-2.1461
X4.453Y-2.7461
X4.553Y-2.1461
X4.553Y-2.7461
X4.653Y-2.1461
X4.653Y-2.7461
X4.753Y-2.1461
X4.753Y-2.7461
X4.853Y-2.1461
X4.853Y-2.7461
X4.953Y-2.1461
X4.953Y-2.7461
X5.053Y-2.1461
X5.053Y-2.7461
X5.153Y-2.1461
X5.153Y-2.7461
X5.1956Y-3.1769
X5.1956Y-3.2769
X5.1956Y-3.3769
X5.1956Y-3.4769
X5.1956Y-3.5769
X5.1956Y-3.6769
X5.1956Y-3.7769
X5.1956Y-3.8769
X5.1956Y-3.9769
X5.1956Y-4.0769
X5.1956Y-4.1769
X5.1956Y-4.2769
X5.1956Y-4.3769
X5.1956Y-4.4769
X5.1956Y-4.5769
X5.1956Y-4.6769
X5.253Y-2.1461
X5.253Y-2.7461
X5.353Y-2.1461
X5.353Y-2.7461
X5.453Y-2.1461
X5.453Y-2.7461
X5.553Y-2.1461
X5.553Y-2.7461
X5.653Y-2.1461
X5.653Y-2.7461
X5.753Y-2.1461
X5.753Y-2.7461
X5.7956Y-3.1769
X5.7956Y-3.2769
X5.7956Y-3.3769
X5.7956Y-3.4769
X5.7956Y-3.5769
X5.7956Y-3.6769
X5.7956Y-3.7769
X5.7956Y-3.8769
X5.7956Y-3.9769
X5.7956Y-4.0769
X5.7956Y-4.1769
X5.7956Y-4.2769
X5.7956Y-4.3769
X5.7956Y-4.4769
X5.7956Y-4.5769
X5.7956Y-4.6769
X5.853Y-2.1461
X5.853Y-2.7461
X5.953Y-2.1461
X5.953Y-2.7461
X5.966Y-3.402
X5.966Y-3.502
X5.966Y-3.602
X5.966Y-3.702
X5.966Y-3.802
X5.966Y-3.902
X5.966Y-4.002
X5.966Y-4.102
X5.966Y-4.202
X5.966Y-4.302
X5.966Y-4.402
X5.966Y-4.502
X5.966Y-4.602
X5.966Y-4.702
X6.053Y-2.1461
X6.053Y-2.7461
X6.153Y-2.1461
X6.153Y-2.7461
X6.253Y-2.1461
X6.253Y-2.7461
X6.566Y-3.402
X6.566Y-3.502
X6.566Y-3.602
X6.566Y-3.702
X6.566Y-3.802
X6.566Y-3.902
X6.566Y-4.002
X6.566Y-4.102
X6.566Y-4.202
X6.566Y-4.302
X6.566Y-4.402
X6.566Y-4.502
X6.566Y-4.602
X6.566Y-4.702
X6.7369Y-1.8731
X6.7369Y-1.9731
X6.7369Y-2.0731
X6.7369Y-2.1731
X6.7369Y-2.2731
X6.7369Y-2.3731
X6.7369Y-2.4731
X6.7369Y-2.5731
X6.7369Y-2.6731
X6.7369Y-2.7731
X6.7369Y-2.8731
X6.7369Y-2.9731
X6.7369Y-3.0731
X6.7369Y-3.1731
X6.7369Y-3.2731
X6.7369Y-3.3731
X6.7369Y-3.4731
X6.7369Y-3.5731
X6.7369Y-3.6731
X6.7369Y-3.7731
X7.3369Y-1.8731
X7.3369Y-1.9731
X7.3369Y-2.0731
X7.3369Y-2.1731
X7.3369Y-2.2731
X7.3369Y-2.3731
X7.3369Y-2.4731
X7.3369Y-2.5731
X7.3369Y-2.6731
X7.3369Y-2.7731
X7.3369Y-2.8731
X7.3369Y-2.9731
X7.3369Y-3.0731
X7.3369Y-3.1731
X7.3369Y-3.2731
X7.3369Y-3.3731
X7.3369Y-3.4731
X7.3369Y-3.5731
X7.3369Y-3.6731
X7.3369Y-3.7731
T3
X6.8439Y-4.4233
X6.9424Y-4.4233
X7.0211Y-4.4233
X7.1195Y-4.4233
T4
X1.9384Y-4.3965
X1.9384Y-4.4965
X1.9817Y-2.3686
X1.9817Y-2.4686
X1.9817Y-2.5686
X1.9817Y-2.6686
X1.9817Y-2.7686
X1.9817Y-2.8686
X2.0211Y-1.7741
X2.0211Y-1.8741
X2.0211Y-1.9741
X2.0211Y-2.0741
X2.0211Y-2.1741
X4.2377Y-3.3611
X4.2377Y-3.4611
X4.2377Y-3.5611
X4.2377Y-3.6611
X4.2377Y-3.7611
X4.2377Y-3.8611
X4.2377Y-3.9611
X4.2377Y-4.0611
X4.2377Y-4.1611
X4.2377Y-4.2611
X4.2377Y-4.3611
X4.2377Y-4.4611
X4.2377Y-4.5611
X4.2377Y-4.6611
X4.3644Y-1.4847
X4.4644Y-1.4847
X4.5644Y-1.4847
X4.6644Y-1.4847
X4.7644Y-1.4847
X4.8377Y-3.3611
X4.8377Y-3.4611
X4.8377Y-3.5611
X4.8377Y-3.6611
X4.8377Y-3.7611
X4.8377Y-3.8611
X4.8377Y-3.9611
X4.8377Y-4.0611
X4.8377Y-4.1611
X4.8377Y-4.2611
X4.8377Y-4.3611
X4.8377Y-4.4611
X4.8377Y-4.5611
X4.8377Y-4.6611
X4.8644Y-1.4847
X4.9644Y-1.4847
X5.0644Y-1.4847
X5.3534Y-1.4296
X5.4534Y-1.4296
X5.5534Y-1.4296
X5.6534Y-1.4296
X5.7534Y-1.4296
X5.8534Y-1.4296
X6.1495Y-3.2406
X6.2495Y-3.2406
X6.3495Y-3.2406
X7.2046Y-4.0019
X7.2046Y-4.1019
X7.3046Y-4.0019
X7.3046Y-4.1019
X7.4046Y-4.0019
X7.4046Y-4.1019
X7.5211Y-1.7713
X7.5211Y-1.8713
X7.5211Y-1.9713
X7.5211Y-2.0713
T5
X6.7231Y-4.53
X7.2404Y-4.53
M30
